<?xml version="1.0" encoding="utf-8"?>
<svg
    xmlns="http://www.w3.org/2000/svg"
    viewBox="0 0 96 97"
    preserveAspectRatio="xMinYMid"
    aria-labelledby="lux-logo-library"
    role="img"
    >
    <title id="lux-logo-library">Princeton University Library</title>
    <g>
        <clipPath id="clip-path"><path d="M3 .91h90v90H3z" fill="none" /></clipPath>
        <rect width="96" height="97" rx="12.24" ry="12.24" fill="#ef7622" />
        <g class="pul-logo-c">
            <g class="pul-logo-c">
            <path
                class="pul-logo-d"
                fill="#ffffff"
                d="M10.77 83.5V20.15a20.61 20.61 0 0 0 6.59-3.05v59.8h.41a16.4 16.4 0 0 0 3.53-.38 38 38 0 0 0 7.62-2.49c1.24-.54 2.45-1.13 3.67-1.71a17.37 17.37 0 0 1 5.72-1.71 11.78 11.78 0 0 1 6.16.85A7 7 0 0 1 46.74 73a4.24 4.24 0 0 1 1.11 2c0 .06 0 .11.06.2s.05-.07.05-.09A4.16 4.16 0 0 1 49.12 73a7.6 7.6 0 0 1 3.17-1.9 12 12 0 0 1 4.42-.55 16.49 16.49 0 0 1 6.44 1.73c2 1 4 1.89 6 2.66a33.85 33.85 0 0 0 6.22 1.74 14.33 14.33 0 0 0 2.69.23h.33V17.33a.51.51 0 0 1 0-.07v-.07A21.31 21.31 0 0 0 85 20v63.5z"
            />
            <path
                class="pul-logo-d"
                fill="#ffffff"
                d="M24.83 32.7A70.14 70.14 0 0 1 25 17l.41.2a17.26 17.26 0 0 0 4.85 1.69 13.45 13.45 0 0 0 8.91-1.44 19.27 19.27 0 0 0 5-3.93 25.37 25.37 0 0 0 3.55-4.83l.12-.19.21.35a24.49 24.49 0 0 0 5.68 6.73 15.38 15.38 0 0 0 6.35 3.2 13.73 13.73 0 0 0 7.33-.4 19 19 0 0 0 2.91-1.22l.25-.13h.12a70.13 70.13 0 0 1 .16 15.56H24.84M35.7 60.37a50.22 50.22 0 0 1-5.26-8.68l17.42-17.43 17.37 17.4A46.75 46.75 0 0 1 60 60.35l-6.05-6-6.07-6.07L35.7 60.37"
            />
            </g>
        </g>
    </g>
</svg>
