<?xml version="1.0" encoding="UTF-8"?>
<svg id="Layer_1" xmlns="http://www.w3.org/2000/svg" version="1.1" viewBox="0 0 440.1 97">
  <!-- Generator: Adobe Illustrator 29.3.1, SVG Export Plug-In . SVG Version: 2.1.0 Build 151)  -->
  <defs>
    <style>
      .st0 {
        fill: #fff;
      }

      .st1 {
        fill: #ef7622;
      }
    </style>
  </defs>
  <rect class="st1" width="96" height="97" rx="12.2" ry="12.2"/>
  <g>
    <path class="st0" d="M10.8,83.5V20.1c2.4-.6,4.6-1.7,6.6-3v59.8h.4c1.2,0,2.4-.1,3.5-.4,2.6-.6,5.2-1.4,7.6-2.5,1.2-.5,2.5-1.1,3.7-1.7,1.8-.9,3.7-1.5,5.7-1.7,2.1-.3,4.2,0,6.2.8.9.4,1.6.9,2.3,1.5.5.6.9,1.2,1.1,2,0,0,0,.1,0,.2s0,0,0,0c.2-.8.6-1.5,1.2-2.1.9-.9,2-1.5,3.2-1.9,1.4-.5,2.9-.6,4.4-.6,2.2.1,4.4.7,6.4,1.7,2,1,4,1.9,6,2.7,2,.8,4.1,1.4,6.2,1.7.9.2,1.8.2,2.7.2h.3V17.3s0,0,0,0h0c2,1.2,4.3,2.2,6.6,2.7v63.5H10.8Z"/>
    <path class="st0" d="M24.8,32.7c-.5-5.2-.5-10.5.2-15.7l.4.2c1.5.8,3.2,1.4,4.9,1.7,3,.6,6.2,0,8.9-1.4,1.9-1,3.6-2.4,5-3.9,1.4-1.5,2.6-3.1,3.5-4.8v-.2c.1,0,.3.4.3.4,1.5,2.6,3.4,4.8,5.7,6.7,1.8,1.5,4,2.6,6.3,3.2,2.4.5,5,.4,7.3-.4,1-.3,2-.7,2.9-1.2h.2c0-.1.1-.1.1-.1.6,5.2.7,10.4.2,15.6H24.8M35.7,60.4c-2-2.7-3.8-5.6-5.3-8.7l17.4-17.4,17.4,17.4c-1.4,3.1-3.2,6-5.2,8.7l-6-6-6.1-6.1-12.2,12.1"/>
  </g>
  <path d="M118.7,28.3h-3V3.9h8.6c2.7,0,4.7.7,6,2.2,1.2,1.4,1.9,3.2,1.9,5,0,1.9-.7,3.8-2.1,5.2-1.5,1.4-3.5,2.1-5.5,2h-5.9v9.9ZM118.7,15.9h5.6c1.3,0,2.5-.4,3.5-1.3.9-.9,1.4-2.1,1.3-3.4,0-1.2-.4-2.3-1.2-3.2-.8-1-2.1-1.5-3.4-1.4h-5.8v9.4ZM139.8,28.3h-2.8V10.3h2.5v4.2c.5-1.5,1.4-2.8,2.6-3.9.8-.6,1.7-.9,2.7-.9.4,0,.7,0,1.1,0v2.7h-.6c-1.5,0-2.9.6-3.9,1.7-1.1,1.3-1.6,2.9-1.6,4.5v9.5ZM153.2,3.9v3.1h-3v-3.1h3ZM153.1,10.3v18h-2.8V10.3h2.8ZM174.1,28.3h-2.6v-11.6c.1-1.3-.3-2.5-1.1-3.5-.7-.7-1.7-1-2.6-1-1.4,0-2.7.6-3.6,1.7-1,1.3-1.5,2.9-1.4,4.5v9.9h-2.8V10.3h2.6v3.3c1.5-2.5,3.4-3.8,5.7-3.8,1.2,0,2.4.3,3.4,1,.9.6,1.5,1.4,1.9,2.3.4,1.5.6,3.1.5,4.7v10.4ZM191.6,22l2.5.5c-.2,1.8-1.1,3.4-2.4,4.7-3,2.5-7.5,2.2-10.1-.9,0,0-.1-.1-.2-.2-1.4-2-2.1-4.3-2-6.7,0-2.4.6-4.8,2.1-6.8,1.3-1.8,3.4-2.8,5.6-2.7,1.7,0,3.4.6,4.7,1.8,1.2,1.2,2,2.8,2.2,4.5l-2.5.5c-.5-3-1.9-4.5-4.3-4.5-1.5,0-2.8.7-3.6,2-.9,1.6-1.3,3.3-1.2,5.1-.1,1.9.3,3.7,1.2,5.4.7,1.2,2.1,2,3.5,1.9,2.3,0,3.8-1.5,4.4-4.5ZM211.1,22.9l2.6.5c-.5,1.5-1.5,2.9-2.8,3.8-1.4,1-3.2,1.6-4.9,1.5-2.3,0-4.5-.9-6-2.6-1.6-1.9-2.4-4.3-2.3-6.8-.1-2.5.7-5,2.4-6.9,1.5-1.7,3.7-2.7,6-2.7,2.2,0,4.3.8,5.7,2.4,1.4,1.6,2.2,4.1,2.2,7.3h-13.1c0,2.7.6,4.6,1.7,5.5,1,.9,2.3,1.4,3.6,1.4,2.3,0,3.9-1.2,4.8-3.5h0ZM210.9,17.4c0-.9-.2-1.8-.5-2.7-.3-.8-.9-1.5-1.6-2-.8-.6-1.7-.9-2.7-.8-1.3,0-2.6.5-3.5,1.5-1,1.1-1.6,2.5-1.6,4h9.9ZM227.4,26.4v2.2c-.9.1-1.7.2-2.6.2-3.5,0-5.2-1.8-5.2-5.5v-10.9h-3.2v-2.2h3.2v-4.5c.1,0,2.7-.2,2.7-.2v4.8h4v2.2h-4v11.3c0,1.9,1,2.8,2.9,2.8.7,0,1.5,0,2.2-.2ZM237.6,28.8c-2.3,0-4.4-.9-5.8-2.8-1.4-2-2.2-4.4-2.1-6.8-.1-2.5.7-5,2.3-6.9,1.5-1.7,3.6-2.6,5.8-2.6,2.3,0,4.5.9,5.9,2.7,1.5,1.9,2.2,4.3,2.1,6.8.1,2.5-.7,5-2.3,6.9-1.5,1.8-3.7,2.7-6,2.7h0ZM237.8,26.4c1.4,0,2.7-.6,3.6-1.8,1-1.2,1.4-3,1.4-5.5s-.5-4.3-1.5-5.4c-.9-1.1-2.2-1.7-3.6-1.7-1.4,0-2.7.6-3.5,1.7-1,1.1-1.4,2.9-1.4,5.4,0,2.6.5,4.5,1.4,5.6.9,1.1,2.2,1.7,3.6,1.7h0ZM265.6,28.3h-2.6v-11.6c.1-1.3-.3-2.5-1.1-3.5-.7-.7-1.7-1-2.6-1-1.4,0-2.7.6-3.6,1.7-1,1.3-1.5,2.9-1.4,4.5v9.9h-2.8V10.3h2.6v3.3c1.5-2.5,3.4-3.8,5.7-3.8,1.2,0,2.4.3,3.4,1,.8.6,1.5,1.4,1.9,2.4.4,1.5.6,3.1.5,4.7v10.4ZM296.9,3.9h2.5v15.9c0,3.2-.8,5.5-2.3,6.9-1.7,1.4-3.9,2.2-6.1,2.1-2.8,0-4.9-.7-6.3-2.1s-2-3.7-2-6.8V3.9h3v15.9c0,1.4.1,2.7.7,4,.5.8,1.2,1.4,2,1.7.9.4,1.8.6,2.8.5,1.6.1,3.1-.4,4.3-1.5,1-1,1.5-2.6,1.5-4.8V3.9ZM320.1,28.3h-2.6v-11.6c.1-1.3-.3-2.5-1.1-3.5-.7-.7-1.7-1-2.6-1-1.4,0-2.7.6-3.6,1.7-1,1.3-1.5,2.9-1.5,4.5v9.9h-2.8V10.3h2.6v3.3c1.5-2.5,3.4-3.8,5.7-3.8,1.2,0,2.4.3,3.4,1,.9.6,1.5,1.4,1.9,2.3.4,1.5.6,3.1.5,4.7v10.4ZM329.9,3.9v3.1h-3v-3.1h3ZM329.8,10.3v18h-2.8V10.3h2.8ZM349.8,10.3l-6.2,18h-2.9l-6.5-18h3.1l5,14.6,5-14.6h2.4ZM365.6,22.9l2.6.5c-.5,1.5-1.5,2.9-2.8,3.8-1.4,1-3.1,1.6-4.9,1.5-2.3,0-4.5-.9-6-2.6-1.6-1.9-2.4-4.3-2.3-6.8-.1-2.5.7-5,2.4-6.9,1.5-1.7,3.7-2.7,6-2.7,2.2,0,4.3.8,5.7,2.4,1.4,1.6,2.2,4.1,2.2,7.3h-13.1c0,2.7.6,4.6,1.7,5.5,1,.9,2.3,1.4,3.6,1.4,2.3,0,3.9-1.2,4.9-3.5ZM365.5,17.4c0-.9-.2-1.8-.5-2.7-.3-.8-.9-1.5-1.6-2-.8-.6-1.7-.9-2.7-.8-1.3,0-2.6.5-3.5,1.5-1,1.1-1.6,2.5-1.6,4h9.9ZM376.8,28.3h-2.8V10.3h2.5v4.2c.5-1.5,1.4-2.8,2.5-3.9.8-.6,1.7-.9,2.7-.9.3,0,.6,0,1.1,0v2.7h-.6c-1.5,0-2.9.6-3.9,1.7-1.1,1.3-1.6,2.9-1.6,4.5v9.5ZM385,23.6l2.7-.6c.6,2.3,2.5,3.4,5.6,3.4,1.1,0,2.1-.2,3-.8.8-.5,1.2-1.3,1.2-2.2,0-1.4-1-2.3-3.1-2.7l-3.8-.7c-1.3-.2-2.6-.8-3.5-1.7-.9-.9-1.4-2.1-1.3-3.3,0-1.5.6-2.9,1.8-3.8,1.4-1.1,3.1-1.6,4.9-1.5,3.9,0,6.3,1.5,7.2,4.6l-2.6.6c-.7-1.9-2.2-2.8-4.5-2.8-1,0-2,.2-2.8.7-.7.4-1.1,1.2-1.1,2,0,1.3.9,2.2,2.8,2.5l3.5.6c3.7.7,5.5,2.4,5.5,5.3,0,1.6-.7,3.1-2,4-1.6,1.1-3.5,1.6-5.5,1.5-4.3,0-6.9-1.7-8-5.1h0ZM408.5,3.9v3.1h-3v-3.1h3ZM408.4,10.3v18h-2.8V10.3h2.8ZM423.4,26.4v2.2c-.9.1-1.7.2-2.6.2-3.5,0-5.2-1.8-5.2-5.5v-10.9h-3.2v-2.2h3.2v-4.5c.1,0,2.7-.2,2.7-.2v4.8h4v2.2h-4v11.3c0,1.9,1,2.8,2.9,2.8.7,0,1.5,0,2.2-.2h0ZM440.1,10.3l-7.2,20.1c-1,2.9-2.7,4.4-5,4.4-.8,0-1.6-.1-2.4-.4v-2.2c.6.2,1.2.2,1.9.2.8,0,1.6-.2,2.2-.8.6-.5,1.2-1.8,1.8-3.7l-6.2-17.6h2.8l4.8,13.5,4.9-13.5h2.4ZM116,43.1h7.4v41.1h22v6.5h-29.4v-47.6ZM161.6,43.1h7.4v47.6h-7.4v-47.6ZM187.9,43.1h17.3c8.9,0,13.4,5.4,13.4,12,.3,4.2-2.4,8-6.4,9.2,6.4,1.5,9.7,6,9.7,12.1s-5.5,14.3-15.5,14.3h-18.6v-47.6ZM204.8,61.7c4.4,0,6.5-2.5,6.5-6s-2-6-6.6-6h-9.4v12h9.5ZM206,84.2c5.7,0,8.5-3.4,8.5-8.1s-2.9-8.1-8.8-8.1h-10.4v16.2h10.7ZM270.7,90.7h-8.5l-8.5-12.5c-1.3.2-2.7.3-4,.3h-4.5v12.2h-7.4v-47.6h11.9c13.2,0,20.5,6.9,20.5,17.8s-3.3,12.4-9.5,15.1l10.1,14.7ZM249.3,72.1c9.4,0,13.2-4.1,13.2-11.2s-3.9-11.3-13.2-11.3h-4.2v22.5h4.2ZM303.6,42.6h.8l20.9,48.1h-7.7l-2.7-6.7h-21.8l-2.7,6.7h-7.1l20.4-48.1ZM312.2,77.8l-6-14.8c-.9-2.3-1.7-4.7-2.4-7.1-.6,2.4-1.4,4.8-2.3,7.1l-6,14.8h16.7ZM373.2,90.7h-8.5l-8.5-12.5c-1.3.2-2.7.3-4,.3h-4.5v12.2h-7.4v-47.6h11.9c13.2,0,20.5,6.9,20.5,17.8s-3.3,12.4-9.5,15.1l10.1,14.7ZM351.9,72.1c9.5,0,13.2-4.1,13.2-11.2s-3.9-11.3-13.2-11.3h-4.2v22.5h4.2ZM402.4,75.7l-18.1-32.5h8.2l10.8,19.6c1.1,2.2,2.1,4.5,2.9,6.9.8-2.3,1.8-4.6,2.9-6.9l10.4-19.6h7.6l-17.3,32.1v15.5h-7.4v-15.1Z"/>
</svg>